<svg width="136" height="132" viewBox="0 0 136 132" fill="none" xmlns="http://www.w3.org/2000/svg">
<g clip-path="url(#clip0_436_84)">
<path d="M64.7872 131.895C100.568 131.895 129.574 103.089 129.574 67.5557C129.574 32.0224 100.568 3.21692 64.7872 3.21692C29.0062 3.21692 0 32.0224 0 67.5557C0 103.089 29.0062 131.895 64.7872 131.895Z" fill="#09101D"/>
<path d="M132.389 60.489C131.911 59.2233 131.008 58.485 129.574 58.5905C128.087 59.487 128.406 60.8582 128.619 62.1238C129.415 66.9229 129.415 71.7219 129.043 76.521C128.725 81.1618 127.769 85.6971 125.273 89.7579C122.034 96.35 116.617 99.4087 109.342 99.3032C107.855 99.3032 106.368 99.145 104.881 99.0395C103.394 99.6724 102.491 100.622 102.12 101.782C102.491 100.622 103.447 99.6724 104.881 99.0395C103.394 98.5122 101.907 97.9848 100.473 97.5102C95.8001 95.8753 92.1359 92.9221 89.2152 89.0196C86.3475 85.5917 84.011 81.9528 82.9489 77.5757C82.7896 77.3647 82.6833 77.2065 82.524 76.9956C82.3116 76.7846 82.0992 76.521 81.8868 76.31C78.6474 76.4155 76.0453 77.8394 73.8149 80.0543C74.5584 83.4822 76.417 86.4355 77.7978 89.5997C79.3378 91.7619 80.8247 93.8713 82.3647 96.0335C84.7013 98.5122 87.2503 100.674 89.9586 102.731C93.5166 104.63 97.1277 106.317 101.057 107.214C101.695 107.266 102.385 107.266 103.022 107.319C107.642 108.321 112.209 107.583 116.776 106.634C123.361 103.839 128.99 100.042 132.336 93.5022C137.859 82.5329 136.584 71.511 132.389 60.489Z" fill="#1C2637"/>
<path d="M101.004 107.214C97.0743 106.317 93.4633 104.63 89.9053 102.731C90.4363 110.272 92.7729 117.286 96.1716 124.037C99.7296 122.455 102.916 120.292 105.783 117.708C103.394 114.544 101.748 111.116 101.004 107.214Z" fill="#152032"/>
<path d="M18.5864 69.4015C18.6395 68.4522 18.7457 67.503 18.9582 66.5537C18.7457 67.4502 18.6395 68.3995 18.5864 69.4015Z" fill="#70C34C"/>
<path d="M100.473 97.5102C100.845 94.9261 101.27 92.342 101.641 89.7051C101.748 88.123 101.801 86.5409 101.907 85.0116C101.96 83.0603 102.013 81.1618 102.066 79.2105C100.473 79.2105 98.9331 79.1578 97.34 79.2105C98.9331 79.2105 100.473 79.2105 102.066 79.2105C104.456 77.5757 103.766 76.0463 102.013 74.4642C102.013 73.0403 101.96 71.6164 101.96 70.2453C101.11 70.2453 100.261 70.298 99.4642 70.3507C99.1986 70.4035 98.9331 70.4035 98.6145 70.4562C98.88 70.4035 99.1455 70.4035 99.4642 70.3507C100.314 70.2453 101.11 70.1925 101.96 70.2453C103.181 68.6632 104.137 67.1338 101.588 65.9209C101.376 64.5497 101.641 63.0731 101.004 61.7547C102.704 59.8034 102.438 58.2213 100.155 56.9556C99.7297 53.5277 99.0393 50.1526 97.6586 47.0939C95.6406 42.7695 95.9062 38.4978 96.9152 34.0679C97.871 29.7962 98.7207 25.5245 97.9241 21.0947C97.4993 18.827 98.88 17.1921 100.951 17.614C103.394 18.1414 103.075 16.7175 103.128 15.3464C103.128 14.9772 102.916 14.819 102.597 14.819C102.438 14.3444 102.066 14.1862 101.588 14.1862C101.376 14.0279 101.217 13.817 101.004 13.6588C99.7297 12.8677 98.5083 11.9712 97.1807 11.3384C95.5875 10.6001 94.9503 9.65079 95.2158 7.85774C95.5344 6.01196 95.0565 4.21891 93.9944 2.58407C93.6227 2.00397 93.3041 1.21292 92.5075 1.26566C91.4454 1.31839 91.6047 2.32039 91.3923 3.0587C91.1799 3.79702 91.0206 4.58807 90.702 5.32638C90.3302 6.0647 90.3833 7.27764 89.3212 7.38311C88.0998 7.54132 87.7812 6.43385 87.4095 5.53733C86.2412 2.95323 84.3826 1.05471 81.6211 0.158184C81.037 -2.62037e-05 80.3997 -0.26371 79.8687 0.263657C79.2845 0.843761 79.7625 1.37113 79.9749 1.95123C80.3466 2.84776 80.9839 3.63881 80.8246 4.64081C80.5059 5.37912 79.8687 5.27365 79.2314 5.27365C72.5403 4.90449 66.805 7.48859 61.4946 11.2329C58.7863 13.1314 56.078 14.5553 52.6262 13.3424C48.2186 11.1274 43.5985 9.49258 38.766 8.54332C37.4915 8.6488 36.4825 9.38711 35.3673 9.96721C10.5145 22.7295 -3.29257 49.0979 0.69025 76.7846C2.07096 86.4355 5.31032 95.4534 11.2049 103.417C14.0725 103.575 16.7808 104.735 19.7016 104.524C20.8699 101.044 20.6574 97.7211 19.8609 94.4514C19.8078 94.2405 19.7547 94.0295 19.7016 93.8186C19.7547 94.0295 19.8078 94.2405 19.8609 94.4514C20.6574 97.7211 20.8699 101.044 19.7016 104.524C21.0823 105.052 22.6754 104.735 23.9499 105.579C23.9499 109.534 24.003 113.437 24.003 117.392C32.1811 124.142 41.4743 128.572 51.8827 130.629C51.8827 128.994 50.98 127.781 50.0241 126.726C49.8648 126.568 49.7586 126.41 49.5993 126.252C49.7586 126.41 49.8648 126.568 50.0241 126.726C50.98 127.834 51.8827 128.994 51.8827 130.629H51.9359C52.1483 130.682 52.4138 130.734 52.6262 130.787C57.5649 131.895 62.6098 132.211 67.6547 131.895C67.2299 130.84 66.7519 129.838 66.3271 128.783C62.8753 124.775 58.3615 121.453 57.1932 115.81C56.8214 113.964 57.087 112.118 56.9277 110.325C56.7152 110.272 56.4497 110.22 56.2373 110.167C56.4497 110.22 56.7152 110.272 56.9277 110.325C58.3615 103.891 58.8394 97.352 58.5208 90.7599C58.6801 90.6017 58.7863 90.3907 58.9456 90.2325C59.6891 85.6444 61.0167 81.2145 62.2912 76.7846C62.9284 74.517 64.5747 73.9896 66.9113 74.9389C69.6727 76.0463 71.4251 78.5249 73.8679 80.0543C76.0983 77.8394 78.7004 76.4155 81.9398 76.31C82.1522 76.5209 82.3646 76.7846 82.577 76.9956C82.7363 77.2065 82.8425 77.3647 83.0018 77.5757C84.117 81.9528 86.4536 85.6444 89.2682 89.0196C89.1088 87.4902 88.9495 85.9608 88.8433 84.4315C89.0026 85.9608 89.1619 87.4902 89.2682 89.0196C92.1358 92.9221 95.8 95.8753 100.473 97.5102ZM99.9952 61.8601C99.7828 61.8601 99.6235 61.9129 99.4111 61.9129C99.6235 61.9129 99.7828 61.9129 99.9952 61.8601ZM19.7016 63.8641C19.4361 64.6025 19.2236 65.3408 19.0643 66.0791C19.2236 65.3408 19.4361 64.6025 19.7016 63.8641ZM21.5602 79.3687C21.2416 78.6832 20.6574 78.2613 19.7016 78.1031C18.8519 75.1498 18.4271 72.1965 18.5864 69.4015C18.6395 68.4522 18.7457 67.503 18.9581 66.5537C18.7457 67.503 18.6395 68.4522 18.5864 69.4015C18.4271 72.1965 18.8519 75.1498 19.7016 78.1031C20.6574 78.2613 21.2416 78.6832 21.5602 79.3687C21.6133 79.4742 21.6664 79.5797 21.6664 79.6852C21.6133 79.5797 21.5602 79.4742 21.5602 79.3687ZM45.4571 118.869C45.6164 119.449 45.7758 120.081 45.9882 120.662C45.8289 120.081 45.6164 119.449 45.4571 118.869ZM46.3599 121.558C46.6254 122.138 46.9441 122.718 47.2627 123.298C46.9441 122.718 46.6254 122.138 46.3599 121.558ZM45.6696 110.272C45.1385 112.593 44.9261 114.861 45.1385 117.023C45.1916 117.339 45.1916 117.656 45.2447 117.972C45.1916 117.656 45.1385 117.339 45.1385 117.023C44.9261 114.861 45.1385 112.593 45.6696 110.272C45.7758 107.583 46.1475 104.999 47.3158 102.784C46.2006 105.052 45.7758 107.583 45.6696 110.272ZM71.6375 27.5813C71.4251 27.3703 71.2658 27.2121 71.0003 27.0539C70.5754 26.7375 70.1506 26.5265 69.5665 26.4211C68.7699 27.1066 68.1327 27.7922 67.6547 28.5305C67.5485 28.6887 67.4423 28.8997 67.3361 29.0579C67.1237 29.4271 66.9644 29.7962 66.805 30.1654C66.7519 30.3763 66.6457 30.5345 66.5926 30.7455C66.4333 31.2201 66.3271 31.7475 66.3271 32.2748C66.3271 32.5385 66.274 32.8022 66.3271 33.0659C66.3271 32.8022 66.3271 32.5385 66.3271 32.2748C66.3802 31.7475 66.4333 31.2728 66.5926 30.7455C66.6457 30.5345 66.6988 30.3763 66.805 30.1654C66.9644 29.7962 67.1237 29.4271 67.3361 29.0579C67.4423 28.8997 67.5485 28.6887 67.6547 28.5305C68.1327 27.7922 68.7699 27.1066 69.5665 26.4211C70.1506 26.5265 70.5754 26.7375 71.0003 27.0539C71.2127 27.2121 71.4251 27.4231 71.6375 27.5813C71.9031 27.845 72.1155 28.1614 72.381 28.4778C72.1155 28.2141 71.9031 27.8977 71.6375 27.5813ZM87.5688 50.0999C87.4626 50.1526 87.3033 50.1526 87.144 50.1526C82.3646 50.6272 78.488 45.8282 80.2404 41.451C80.7184 40.2381 81.3025 39.4998 82.7894 40.0799C83.0018 40.1326 83.1612 40.2381 83.3736 40.3436C83.9577 40.6072 84.4888 40.9764 85.0198 41.451C87.144 43.1913 88.8433 46.0391 88.7902 48.2013C88.7371 49.1506 88.4716 49.8362 87.5688 50.0999Z" fill="#152032"/>
<path d="M71.6377 27.5813C71.4253 27.3704 71.266 27.2122 71.0005 27.054C71.2129 27.2122 71.4253 27.4231 71.6377 27.5813Z" fill="#70C34C"/>
<path d="M84.9668 41.451C87.091 43.1914 88.7903 46.0391 88.7372 48.2014C88.7903 49.1506 88.4717 49.8362 87.5689 50.0999C88.4717 49.8889 88.7903 49.2033 88.7372 48.2014C88.7903 46.0391 87.091 43.2441 84.9668 41.451Z" fill="#70C34C"/>
</g>
<defs>
<clipPath id="clip0_436_84">
<rect width="136" height="132" fill="white"/>
</clipPath>
</defs>
</svg>
