<svg id="Capa_1" data-name="Capa 1" xmlns="http://www.w3.org/2000/svg" viewBox="0 0 539.8 153.5"><defs><style>.cls-1{fill:#fbe6c2;}.cls-2{fill:#f0c929;}.cls-3{fill:#ffd600;}.cls-4{fill:#fff;}</style></defs><title>logo-mammoth-sign</title><path class="cls-1" d="M364.2,273.7a3.2,3.2,0,0,0-3.3-2.2c-1.7,1-1.3,2.7-1.1,4.1a67.6,67.6,0,0,1,.5,16.8c-.4,5.4-1.4,10.7-4.3,15.4-3.8,7.6-10,11.2-18.4,11.1-1.8,0-3.5-.2-5.2-.3a5.6,5.6,0,0,0-2.9,2.5,5.6,5.6,0,0,1,2.9-2.5l-5.1-1.8a27.1,27.1,0,0,1-13-9.9,33.4,33.4,0,0,1-7.3-13.3l-.5-.6-.7-.9a13.7,13.7,0,0,0-9.3,4.4c.9,4,3,7.4,4.5,11.1l5.3,7.5a72.2,72.2,0,0,0,8.8,7.8,54.6,54.6,0,0,0,12.8,5.2h2.3c5.4,1.2,10.6.3,15.9-.8,7.6-3.2,14.1-7.7,17.9-15.3C370.5,299.3,369.1,286.6,364.2,273.7Z" transform="translate(-211.2 -203.4)"/><path class="cls-1" d="M307,293.6Z" transform="translate(-211.2 -203.4)"/><path class="cls-2" d="M272,218.9a41.4,41.4,0,0,0-9.9,2.7c-9.1,4-13.6,11.5-13.9,20.9s-2.7,20.3-10.1,28.5-6.4,14.8-4.1,23.2c-2.9.1-3.2,2.2-3,4.3a33.5,33.5,0,0,0,1.3,8.4c1.9,6,3.8,11.8,1.7,18.1-3.4.3-6.6-1.1-9.9-1.3a68.9,68.9,0,0,1-12.1-31,75.2,75.2,0,0,1,40.1-77.8c1.3-.6,2.4-1.5,3.9-1.6A60.9,60.9,0,0,1,272,218.9Z" transform="translate(-211.2 -203.4)"/><path class="cls-2" d="M287.8,353.2l1.6,3.6a59.7,59.7,0,0,1-17.4-1.3l-.8-.2h-.1c0-2.9-2.3-4.5-3.9-6.5-4-5.2-4.6-11-3.2-17.1,4.3-3.5,7.4-4.3,11.8-.4.3.3.8.3,1.2.4.1,2.1-.2,4.2.3,6.4C278.6,344.7,283.8,348.5,287.8,353.2Z" transform="translate(-211.2 -203.4)"/><path class="cls-2" d="M322.3,347.7a65.1,65.1,0,0,1-7.2-24.8,50.6,50.6,0,0,0,12.8,5.2,29.5,29.5,0,0,0,5.6,12.2A44.5,44.5,0,0,1,322.3,347.7Z" transform="translate(-211.2 -203.4)"/><path class="cls-2" d="M291.6,272.2c-4.6-.4-8.4-3.7-8.5-8.3a25.1,25.1,0,0,0-2.7-10.5c-3.2-6.9-2.1-12.7,3.5-18a6.6,6.6,0,0,1,7.7-1.3c-4.8,4.3-4.5,9.1-1.7,14.3a14.5,14.5,0,0,1,.9,10.2C289.6,263.3,289.3,267.7,291.6,272.2Z" transform="translate(-211.2 -203.4)"/><path class="cls-2" d="M327.8,224c2.8.6,2.4-1.1,2.5-2.7,0,0-4.6-3.6-6.9-4.6s-2.6-2-2.3-4.1a8.4,8.4,0,0,0-1.4-6.1c-.4-.7-.8-1.6-1.7-1.5s-1.1,1.2-1.3,2.1a11.2,11.2,0,0,1-.8,2.6c-.4.9-.3,2.2-1.6,2.4s-1.7-1.2-2.2-2.2a10.8,10.8,0,0,0-6.7-6.2c-.7-.2-1.4-.5-2,.1s-.2,1.3.1,1.9,1.2,2,1,3.2-1.1.7-1.8.7c-7.8-.5-14.4,2.6-20.5,6.9-3.1,2.3-6.3,3.9-10.2,2.5a37.2,37.2,0,0,0-9.9,2.7c-9.1,4-13.6,11.4-13.9,20.9s-2.7,20.3-10.1,28.4-6.4,14.9-4.1,23.3a2.6,2.6,0,0,1,2.4,3,47.8,47.8,0,0,0,3.7,16.2c1.8,4-.3,7.7-1,11.6a3.5,3.5,0,0,1-.3,1.1c.1,4.6.1,9.2.1,13.8a72,72,0,0,0,32.2,15.4c0-3-2.3-4.6-3.9-6.6-4-5.2-4.6-10.9-3.2-17.1h0c4.3-3.5,7.4-4.3,11.8-.4.3.3.8.3,1.2.4a86.7,86.7,0,0,0,1.8-22.7l.5-.6c.8-5.4,2.4-10.5,3.8-15.7.7-2.6,2.6-3.2,5.3-2.1s5.3,4.2,8.1,6a13.2,13.2,0,0,1,9.3-4.4c-.5-4.5-2-8.7-3.2-13s-.6-6.1,1.4-6.2,3.3,2.5,3.8,4.6c1.1,3.9,2,7.8,3.2,11.7a5,5,0,0,1-.4,3.8c1.5,2.7,2.2,5.7,3.1,8.6,4.9,4.4,10,3.7,15.3.6,0-2.2.1-4.5.1-6.7h-5.4c-2,0-3.6-.9-3.6-2.8s1.4-2.9,3.5-2.7,3.7,0,5.5,0c0-1.6-.1-3.2-.1-4.9a29.4,29.4,0,0,0-5.1.5c-1.9.3-3.9-.1-4-2.6s1.5-2.9,3.5-2.8h5.2c-.3-1.6,0-3.3-.7-4.8l-6.1.6c-1.6.1-3.1,0-3.2-2.2s1.1-3,2.9-3.2,3.7.1,5.4-.8a40.5,40.5,0,0,0-2.9-11.5c-2.3-5-2-10-.9-15.1s2.1-10,1.2-15.1C323.8,225.3,325.4,223.4,327.8,224Zm-15.9,37.7c-5.6.6-10-5-8-10.1.5-1.4,1.2-2.3,3-1.6,3.4,1.4,6.9,6.1,6.8,9.4C313.8,260.7,313.4,261.6,311.9,261.7Z" transform="translate(-211.2 -203.4)"/><path class="cls-2" d="M238.8,326.2c-1.4-1-3.3-.6-4.8-1.2,2.1-6.3.2-12.1-1.7-18.1a33.5,33.5,0,0,1-1.3-8.4c-.2-2.1.1-4.2,3-4.3a2.6,2.6,0,0,1,2.4,3,47.8,47.8,0,0,0,3.7,16.2c1.8,4-.3,7.8-1,11.6A5.3,5.3,0,0,1,238.8,326.2Z" transform="translate(-211.2 -203.4)"/><path class="cls-2" d="M327.3,316.8a27.1,27.1,0,0,1-13-9.9l-.6-5.3c4.9,4.4,10,3.7,15.3.7l-.3,5.4C328.2,310.8,327.7,313.8,327.3,316.8Z" transform="translate(-211.2 -203.4)"/><path class="cls-2" d="M306.5,293l-.7-.9c-.5-4.4-2-8.6-3.2-12.9s-.6-6.1,1.4-6.3,3.3,2.5,3.8,4.6c1.1,3.9,2,7.8,3.2,11.7a5,5,0,0,1-.4,3.8c-1.1.8-2.4.6-3.6.6h0Z" transform="translate(-211.2 -203.4)"/><path class="cls-2" d="M329.1,290c2,1.8,2.8,3.6,0,5.5h-5.4c-2,0-3.6-1-3.6-2.9s1.4-2.8,3.5-2.7A50.5,50.5,0,0,0,329.1,290Z" transform="translate(-211.2 -203.4)"/><path class="cls-2" d="M326.9,269.6c2.6,1.5,2.9,3.4,1,5.6l-6.1.6c-1.6.2-3.1.1-3.2-2.2s1.1-3,2.9-3.2S325.2,270.6,326.9,269.6Z" transform="translate(-211.2 -203.4)"/><path class="cls-2" d="M328.6,280c2.9,1.5,1.8,3.2.4,5.1a21.9,21.9,0,0,0-5.1.4c-1.9.3-3.9,0-4-2.6s1.5-2.8,3.5-2.8Z" transform="translate(-211.2 -203.4)"/><path class="cls-3" d="M444.8,261.6c0-9.1.2-19.2.4-25.2h-.3c-2.5,10.8-7.9,28.5-13,45.2h-9.7c-3.9-14.6-9.4-34.8-11.8-45.4h-.3c.4,6.3.7,17.2.7,26.3v19.1H400.3V228.4h17.1c4.1,13.9,8.8,31.3,10.4,39.2h.1c1.3-7,7.1-25.6,11.5-39.2h16.5v53.2H444.8Z" transform="translate(-211.2 -203.4)"/><path class="cls-3" d="M498.9,271.2a103.8,103.8,0,0,0,.5,10.4H488.9a12.3,12.3,0,0,1-.6-3.9c-1.4,2.2-4.2,4.8-11.2,4.8-9.6,0-13.7-6.3-13.7-12.5,0-9.1,7.3-13.3,19-13.3h5.7v-2.5c0-2.8-1-5.6-6.2-5.6s-5.6,2-6.1,4.9H465.2c.6-7.1,5-12.8,17.2-12.8s16.5,4.3,16.5,13.8Zm-10.8-7.8h-4.5c-6.7,0-9.1,2-9.1,5.9s1.7,5.3,5.7,5.3c7,0,7.9-4.9,7.9-10.2Z" transform="translate(-211.2 -203.4)"/><path class="cls-3" d="M508.9,251.9c0-3.4,0-6.8-.1-10.3h10.6c.1,1,.3,3.2.4,4.8,2-3,5.2-5.7,11.1-5.7s8.9,3,10.3,6.1c2.3-3.3,5.8-6.1,12.3-6.1s12.6,4.3,12.6,14.7v26.2H555.3V256.7c0-3.6-1.3-7.1-5.8-7.1s-6.5,3-6.5,9.1v22.9H532.2V257.1c0-4.1-1.1-7.4-5.8-7.4s-6.6,2.7-6.6,9.6v22.3H508.9Z" transform="translate(-211.2 -203.4)"/><path class="cls-3" d="M576,251.9V241.6h10.5a47.7,47.7,0,0,1,.5,4.8c2-3,5.2-5.7,11-5.7s8.9,3,10.3,6.1c2.4-3.3,5.8-6.1,12.3-6.1s12.7,4.3,12.7,14.7v26.2H622.5V256.7c0-3.6-1.3-7.1-5.8-7.1s-6.5,3-6.5,9.1v22.9H599.3V257.1c0-4.1-1-7.4-5.7-7.4s-6.6,2.7-6.6,9.6v22.3H576Z" transform="translate(-211.2 -203.4)"/><path class="cls-3" d="M680.3,261.5c0,12.1-7.2,21-19.8,21s-19.6-8.8-19.6-20.8,7.4-21,20.1-21S680.3,249,680.3,261.5Zm-28.2.1c0,7.7,3.3,12.2,8.6,12.2s8.4-4.5,8.4-12.1-3-12.3-8.5-12.3S652.1,253.2,652.1,261.6Z" transform="translate(-211.2 -203.4)"/><path class="cls-3" d="M683.8,241.6H690V230.8h11v10.8h7.8V250H701v19.7c0,3,.9,4.2,4.2,4.2a12.8,12.8,0,0,0,2.6-.2v7.6c-2.2.8-5.2.8-7.5.8-7.8,0-10.3-4.2-10.3-11.1V250h-6.2Z" transform="translate(-211.2 -203.4)"/><path class="cls-3" d="M726.2,225.3v21.1c1.7-2.6,5-5.7,11.4-5.7S751,245.1,751,256v25.6H740v-24c0-5.2-1.8-7.9-6.5-7.9s-7.3,4.5-7.3,10.7v21.2H715.1V225.3Z" transform="translate(-211.2 -203.4)"/><path class="cls-4" d="M412.1,296.7H400.3v-5.9H431v5.9H419.2v32.1h-7.1Z" transform="translate(-211.2 -203.4)"/><path class="cls-4" d="M473.4,290.8v22.7c0,7.9,4.2,10.2,8.5,10.2s8.4-2.6,8.4-10.2V290.8h7.1v22.4c0,12.7-7.3,16.1-15.6,16.1s-15.5-3.5-15.5-15.9V290.8Z" transform="translate(-211.2 -203.4)"/><path class="cls-4" d="M543,313.1v15.7h-7v-38h16.1c8.1,0,12.4,4.5,12.4,10.4s-2.8,7.9-5.8,8.9c2.3.8,5.1,2.9,5.1,9.6v1.8c0,2.6-.1,5.6.5,7.3h-6.8c-.7-1.6-.7-4.5-.7-8.4v-.6c0-4.6-1.2-6.7-7.6-6.7Zm0-5.8h7.3c5,0,7-1.8,7-5.4s-2.2-5.3-6.6-5.3H543Z" transform="translate(-211.2 -203.4)"/><path class="cls-4" d="M608.8,290.8v38h-7.1v-38Z" transform="translate(-211.2 -203.4)"/><path class="cls-4" d="M647.8,328.8v-38h9c5,8.7,14.8,25.3,16.7,29.4h.1c-.4-4.3-.4-10.7-.4-16.9V290.8h6.5v38h-8.5c-4.4-7.7-15-26.3-17-30.6h-.1c.2,3.7.3,11,.3,17.8v12.8Z" transform="translate(-211.2 -203.4)"/><path class="cls-4" d="M750.8,328.8h-5.3a20,20,0,0,1-.5-4.2c-2,2.8-5.5,4.8-11.4,4.8-11,0-17-8.3-17-19.1s6.5-20,18.3-20c9.4,0,15.1,5.3,16.1,11.8h-7.1c-1-3.1-3.3-6.1-9.1-6.1-8.2,0-10.8,6.7-10.8,14s2.9,13.7,10.7,13.7,9.2-5.2,9.2-9.6v-.4h-9.2v-5.9h16.1Z" transform="translate(-211.2 -203.4)"/></svg>